inDegrees=no
num_controls=7
num_derivatives=13
num_iterations=97
num_multipliers=7
num_parameters=0
num_slacks=7
num_states=26
objective=0.681383
objective_accelerations=0.019110
objective_balance=0.001445
objective_effort=0.011153
objective_height=0.439866
objective_ligament=0.209810
solver_duration=1446.287489
status=Solve_Succeeded
success=true
DataType=double
version=3
OpenSimVersion=4.5
endheader
time	/jointset/ground_pelvis/pelvis_tilt/value	/jointset/ground_pelvis/pelvis_tx/value	/jointset/ground_pelvis/pelvis_ty/value	/jointset/hip_l/hip_flexion_l/value	/jointset/hip_l/hip_adduction_l/value	/jointset/hip_l/hip_rotation_l/value	/jointset/back/lumbar_extension/value	/jointset/patellofemoral_l/patellar_flexion_l/value	/jointset/knee_l/knee_flexion_l/value	/jointset/knee_l/knee_adduction_l/value	/jointset/knee_l/knee_rotation_l/value	/jointset/ankle_l/ankle_angle_l/value	/jointset/subtalar_l/subtalar_angle_l/value	/jointset/ground_pelvis/pelvis_tilt/speed	/jointset/ground_pelvis/pelvis_tx/speed	/jointset/ground_pelvis/pelvis_ty/speed	/jointset/hip_l/hip_flexion_l/speed	/jointset/hip_l/hip_adduction_l/speed	/jointset/hip_l/hip_rotation_l/speed	/jointset/back/lumbar_extension/speed	/jointset/patellofemoral_l/patellar_flexion_l/speed	/jointset/knee_l/knee_flexion_l/speed	/jointset/knee_l/knee_adduction_l/speed	/jointset/knee_l/knee_rotation_l/speed	/jointset/ankle_l/ankle_angle_l/speed	/jointset/subtalar_l/subtalar_angle_l/speed	/forceset/tau_hip_flexion_l	/forceset/tau_hip_adduction_l	/forceset/tau_hip_rotation_l	/forceset/tau_knee_flexion_l	/forceset/tau_ankle_angle_l	/forceset/tau_subtalar_angle_l	/forceset/tau_lumbar_extension	lambda_cid13_p0	lambda_cid13_p1	lambda_cid13_p2	lambda_cid13_p3	lambda_cid13_p4	lambda_cid13_p5	lambda_cid14_p0	/jointset/ground_pelvis/pelvis_tilt/accel	/jointset/ground_pelvis/pelvis_tx/accel	/jointset/ground_pelvis/pelvis_ty/accel	/jointset/hip_l/hip_flexion_l/accel	/jointset/hip_l/hip_adduction_l/accel	/jointset/hip_l/hip_rotation_l/accel	/jointset/back/lumbar_extension/accel	/jointset/patellofemoral_l/patellar_flexion_l/accel	/jointset/knee_l/knee_flexion_l/accel	/jointset/knee_l/knee_adduction_l/accel	/jointset/knee_l/knee_rotation_l/accel	/jointset/ankle_l/ankle_angle_l/accel	/jointset/subtalar_l/subtalar_angle_l/accel	gamma_cid13_p0	gamma_cid13_p1	gamma_cid13_p2	gamma_cid13_p3	gamma_cid13_p4	gamma_cid13_p5	gamma_cid14_p0
1.5	-0.3457287049119898	0.02838986642161249	0.860727619272469	0.730573216198581	-0.2857617600359732	-0.2405826140329603	-0.318477705341186	0.2956786492044665	0.2956786492044643	0.02224396109385846	-0.174252499258437	0.01401999289129613	0.1445738214991698	0.6737166700600158	0.2870421908021625	0.1786540632255132	-1.515546425341636	0.1201898711032425	-0.2860330959358807	0.610936601512561	-0.7479118925254613	-0.7479118925255731	0.07011470040527386	0.002290560447862943	0.1041163730079577	0.1657853517391198	-0.1333699347196419	0.0416074556990902	-0.008493389615599213	-0.03394777462866957	0.01700091225281275	-0.0007759893472376443	0.1269338340401898	-19.85651820757103	-0.3686544217020635	4.555069046239844	-4.100263554008169	-449.8178018471916	-56.28907637117806	-25.30538193144173	0.2853099408324997	0.4770345224776453	-0.1320202739123584	-1.086479686159243	0.1311991248148324	-0.160904853115154	1.357059858472738	-0.487841344639128	-0.4878413446391568	-0.06701748571766108	0.0441489448135783	0.3666095080731852	0.2963442152698645	5.143567944672348e-08	-7.716665828149776e-08	-1.317874371872444e-07	-9.573421934311893e-09	4.382235195610873e-08	-4.935458916359053e-08	2.735388325901173e-08
1.51	-0.3389781056859293	0.03128376311229331	0.8625071906381075	0.7153651768869574	-0.2845537352250518	-0.2434500664905379	-0.3123016451349221	0.2881759188145588	0.2881759188145459	0.02294085004089949	-0.1742268859795184	0.01507913632767391	0.1462459395584814	0.6763002997060594	0.2916975773306276	0.1772210770250226	-1.525843994511344	0.121398342955912	-0.2874133518489984	0.624184451658886	-0.7525357711079319	-0.7525357711080554	0.06924433800897541	0.002843823823112684	0.1076926623487747	0.1686167718051736	-0.1284110235773861	0.04075404057203219	-0.008496935540901394	-0.03460694045378277	0.0172276235435605	-0.001350845899759335	0.123122255451278	-19.74577895111072	-0.1531888198619969	4.537628682891456	-3.971664408683425	-448.2420539228551	-56.25192235500433	-25.3565439033475	0.2294688900799798	0.4538528261120116	-0.1547963371765783	-0.9687672544662556	0.1131750499804698	-0.1199609393961086	1.294999380374038	-0.434904847594052	-0.4349048475959109	-0.09987985891607744	0.0626526936740333	0.3501963959292635	0.2733476134312819	5.57048144205506e-08	-8.568732805392829e-08	-1.385461499138672e-07	-1.114727411278263e-08	5.247838627080129e-08	-5.367673799653805e-08	2.872005625082243e-08
1.52	-0.3322047542806804	0.03422302608987446	0.8642712604329298	0.7000606875392326	-0.2833341249286895	-0.2463299965030444	-0.3059958360696594	0.2806299008923144	0.2806299008923027	0.02362846851547908	-0.1741953925348859	0.01617345420723029	0.1479457331606862	0.6782671058956766	0.2961154481822282	0.1755537490622544	-1.534836432564656	0.1225069681880595	-0.2885286069215555	0.6368863733116894	-0.7565693989921163	-0.7565693989922517	0.06826060591948072	0.003466593590091731	0.1111512616433305	0.1713204603175547	-0.1234521124350374	0.03990062544500923	-0.00850048146621756	-0.03526610627884583	0.01745433483433885	-0.001925702452233605	0.1193106768624267	-19.6366234773221	0.0627834126497238	4.519845758928494	-3.857224362622106	-446.6968203824459	-56.22708450268979	-25.40259642517906	0.161945249547213	0.4295313871048076	-0.1788886263678688	-0.8254534628800145	0.1112298007104193	-0.1079046850030267	1.247874159768393	-0.3697912049819167	-0.3697912049819492	-0.08969142435692901	0.05805022315941124	0.343071498821047	0.2707979045353566	5.757485239432103e-08	-8.936068937787557e-08	-1.411511207491452e-07	-1.166468031101274e-08	5.977115920643447e-08	-5.623401565586087e-08	2.932307924415185e-08
1.53	-0.325414720640354	0.03720522626528987	0.8660175135857738	0.6846727441092009	-0.282103946067368	-0.2492197570566547	-0.2995657978892048	0.2730464995753271	0.2730464995753167	0.02430567528193691	-0.1741573282715283	0.01730171159718255	0.1496718821381172	0.6796418715823639	0.3002791627459198	0.1736599556565842	-1.542531877455137	0.1235103326925435	-0.2893765501593364	0.6490284583618962	-0.7600077490075181	-0.7600077490075118	0.06716198446284798	0.004159116701730781	0.114476140099193	0.1738841831187788	-0.1186118391523753	0.03911511969547453	-0.008506748123127985	-0.03569049114837003	0.01727659110864791	-0.002493206913121104	0.1155609812426083	-19.66366133401064	0.2816391812602386	4.521900471832716	-3.61311051813077	-445.2415048036535	-56.18297342468451	-25.44333233856261	0.1105900922896465	0.4029757207635526	-0.2001498263129159	-0.7085217763866792	0.09213338566064065	-0.06617746325303372	1.183455014932227	-0.3153953910095774	-0.3153953909884006	-0.1227824402387156	0.07676076238374721	0.323589937795711	0.2454157408671543	5.689584980553125e-08	-8.788378547530944e-08	-1.393427408248693e-07	-1.105961265523719e-08	6.56154669268171e-08	-5.691611769320747e-08	2.91152553640949e-08
